Coordinates
version=1
nRows=23
nColumns=23
inDegrees=yes

Units are S.I. units (second, meters, Newtons, ...)
If the header above contains a line with 'inDegrees', this indicates whether rotational values are in degrees (yes) or radians (no).

endheader
time	pelvis_tilt	pelvis_list	pelvis_rotation	pelvis_tx	pelvis_ty	pelvis_tz	hip_flexion_r	hip_adduction_r	hip_rotation_r	knee_angle_r	knee_angle_r_beta	ankle_angle_r	subtalar_angle_r	mtp_angle_r	hip_flexion_l	hip_adduction_l	hip_rotation_l	knee_angle_l	knee_angle_l_beta	ankle_angle_l	subtalar_angle_l	mtp_angle_l
      0.00000000	    -17.57180130	      0.42695338	     -3.16607128	      2.18583941	      1.06481596	      1.03913145	     49.04083125	     -1.36996973	    -16.78715417	     24.92979247	      0.43510696	      5.13277686	     11.45633333	      0.00000000	     -4.98174664	     -3.57909778	    -11.77124610	     58.34496548	      1.01831175	    -15.82717497	    -11.85131191	      0.00000000
      0.00666667	    -16.88927562	      0.35790804	     -3.39669817	      2.18555157	      1.06160254	      1.03994106	     47.77128189	     -1.13124574	    -17.14955088	     24.65515281	      0.43031359	      4.86795434	     11.24229918	      0.00000000	     -4.29821023	     -4.09071812	    -11.92571658	     62.97157711	      1.09906136	    -15.93678822	    -12.58636288	      0.00000000
      0.01333333	    -16.27286446	      0.15320746	     -3.64785390	      2.18526757	      1.05810654	      1.04076919	     46.53450070	     -0.72770903	    -17.39502869	     24.38299219	      0.42556350	      4.37536210	     10.68350755	      0.00000000	     -3.66966358	     -4.75147533	    -12.12322601	     67.41986538	      1.17669863	    -15.95760687	    -13.06868877	      0.00000000
      0.02000000	    -15.75355054	     -0.03664651	     -3.88534161	      2.18489915	      1.05425473	      1.04139938	     45.50242058	     -0.41077184	    -17.61225712	     24.50207753	      0.42764193	      4.10145315	     10.12254133	      0.00000000	     -2.98470554	     -5.30705527	    -12.20285269	     71.67797471	      1.25101666	    -16.03151442	    -13.88822716	      0.00000000
      0.02666667	    -15.26119666	     -0.23155972	     -4.17628482	      2.18447720	      1.05010749	      1.04203336	     44.59922558	     -0.12783815	    -17.78221264	     25.09201426	      0.43793826	      3.97434747	      9.46733833	      0.00000000	     -2.29456215	     -5.86112093	    -12.34234093	     75.78155642	      1.32263767	    -15.97485880	    -14.84188456	      0.00000000
      0.03333333	    -14.85557102	     -0.47472667	     -4.47719757	      2.18398756	      1.04563480	      1.04254463	     43.86243032	      0.14000451	    -17.87537528	     26.14365425	      0.45629285	      3.89599639	      8.63679060	      0.00000000	     -1.49961143	     -6.49247926	    -12.53187897	     79.76932837	      1.39223742	    -15.83614025	    -15.89773404	      0.00000000
      0.04000000	    -15.00722495	     -0.64226533	     -4.70906973	      2.18295643	      1.04036946	      1.04293785	     43.79789552	      0.54303611	    -16.95077834	     27.47721213	      0.47956782	      3.81971866	      6.24943777	      0.00000000	      0.09820891	     -7.00924186	    -12.48339558	     83.78410625	      1.46230851	    -15.72196597	    -17.25583866	      0.00000000
      0.04666667	    -14.88791314	     -0.96948027	     -4.92960866	      2.18201421	      1.03528842	      1.04327117	     43.51720856	      0.81244291	    -16.74113731	     29.46702726	      0.51429665	      4.51433928	      5.02881825	      0.00000000	      1.43066269	     -7.75384305	    -12.48563784	     87.65637658	      1.52989238	    -15.32837868	    -18.47637086	      0.00000000
      0.05333333	    -15.42390840	     -0.94023847	     -5.19749298	      2.18035823	      1.02914304	      1.04362437	     44.16005414	      1.00353412	    -15.61336534	     31.95393734	      0.55770142	      5.31106630	      2.79353450	      0.00000000	      3.70165602	     -8.10397892	    -12.40901163	     91.50685844	      1.59709597	    -15.01219537	    -19.82358641	      0.00000000
      0.06000000	    -15.83792083	     -1.06361569	     -5.43588277	      2.17856116	      1.02325975	      1.04412421	     44.62347468	      1.35204723	    -14.48945752	     34.62715097	      0.60435780	      6.70543376	      0.61084980	      0.00000000	      5.94559214	     -8.70067713	    -12.29035118	     95.23143046	      1.66210201	    -14.49990034	    -20.94284653	      0.00000000
      0.06666667	    -16.35655438	     -1.20007287	     -5.63189259	      2.17642260	      1.01742379	      1.04472070	     45.13996684	      1.82614833	    -13.14470560	     37.33443882	      0.65160888	      8.36622019	     -1.78062547	      0.00000000	      8.47783732	     -9.33959500	    -12.02977406	     98.83686267	      1.72502868	    -13.90280723	    -21.86971208	      0.00000000
      0.07333333	    -16.91354108	     -1.35197316	     -5.77283494	      2.17405456	      1.01182677	      1.04544325	     45.58626638	      2.30270034	    -11.96105011	     40.02059817	      0.69849121	     10.49925421	     -3.53586824	      0.00000000	     11.22406723	    -10.03406406	    -11.64224684	    102.27412657	      1.78502025	    -13.19606355	    -22.41287219	      0.00000000
      0.08000000	    -17.63340024	     -1.47250767	     -5.85964463	      2.17138765	      1.00647395	      1.04622770	     46.03278289	      2.83099423	    -10.68680998	     42.44991592	      0.74089080	     12.57045146	     -5.42472323	      0.00000000	     14.34908962	    -10.68353689	    -11.07146416	    105.51369527	      1.84156139	    -12.39759942	    -22.70625725	      0.00000000
      0.08666667	    -18.33122290	     -1.65655891	     -5.86858632	      2.16866711	      1.00174584	      1.04707885	     46.19177047	      3.39966285	     -9.54749467	     44.50626001	      0.77678077	     14.73231023	     -7.01264974	      0.00000000	     17.61508812	    -11.37411045	    -10.31092610	    108.49040312	      1.89351474	    -11.55882866	    -22.67043973	      0.00000000
      0.09333333	    -19.02291774	     -1.86821616	     -5.78566817	      2.16588538	      0.99775949	      1.04780601	     46.05747125	      3.91695178	     -8.59129070	     46.12045992	      0.80495388	     16.84662025	     -8.32333380	      0.00000000	     21.06716514	    -11.99482435	     -9.33781938	    111.16413946	      1.94018024	    -10.66636223	    -22.33945643	      0.00000000
      0.10000000	    -19.62326133	     -2.12888526	     -5.62842113	      2.16321490	      0.99466962	      1.04842051	     45.54136263	      4.36946827	     -7.87192027	     47.31049182	      0.82572385	     18.96074742	     -9.11511996	      0.00000000	     24.56373572	    -12.57427786	     -8.22359919	    113.47286876	      1.98047517	     -9.81986144	    -21.75669202	      0.00000000
      0.10666667	    -20.15548086	     -2.39339737	     -5.37359249	      2.16072528	      0.99247803	      1.04880864	     44.66357546	      4.67042374	     -7.42339194	     48.04560968	      0.83855408	     20.97629941	     -9.54850563	      0.00000000	     28.11392586	    -12.99466073	     -6.97685391	    115.38641991	      2.01387294	     -8.98861020	    -20.97179433	      0.00000000
      0.11333333	    -20.42651054	     -2.64546263	     -5.05303037	      2.15863216	      0.99151543	      1.04892586	     43.22312829	      4.81487284	     -7.19573706	     48.32447369	      0.84342118	     22.84271709	     -9.64941196	      0.00000000	     31.42454386	    -13.20639688	     -5.71469407	    116.82676316	      2.03901167	     -8.31566123	    -20.22722891	      0.00000000
      0.12000000	    -20.85353764	     -2.89835383	     -4.60995257	      2.15680001	      0.99109121	      1.04881582	     41.69219844	      4.78851961	     -7.32740027	     48.17050770	      0.84073396	     24.36881534	     -9.21715880	      0.00000000	     34.97230117	    -13.27780036	     -4.39643750	    117.87375306	      2.05728509	     -7.52580946	    -19.06843281	      0.00000000
      0.12666667	    -20.92130180	     -3.05158833	     -4.11504566	      2.15555271	      0.99201168	      1.04849171	     39.54555316	      4.58781079	     -7.54841886	     47.61408852	      0.83102262	     25.66547023	     -8.73768801	      0.00000000	     38.03357980	    -13.05355636	     -3.24100130	    118.38959561	      2.06628824	     -7.00229622	    -18.25037895	      0.00000000
      0.13333333	    -20.98299736	     -3.15589889	     -3.59291863	      2.15492163	      0.99366138	      1.04794693	     37.16925014	      4.12545922	     -8.30639019	     46.71813713	      0.81538531	     26.64646811	     -7.04944855	      0.00000000	     40.95675467	    -12.69056495	     -2.28230489	    118.44650262	      2.06728146	     -6.23481887	    -16.95006327	      0.00000000
      0.14000000	    -20.91152210	     -3.22230218	     -2.94536998	      2.15465005	      0.99623983	      1.04721283	     34.46196707	      3.71968121	     -8.89259177	     45.37724195	      0.79198228	     26.99117772	     -6.31730753	      0.00000000	     43.63452434	    -12.08135069	     -1.37772325	    118.05341358	      2.06042076	     -5.90160365	    -16.38041415	      0.00000000
      0.14666667	    -20.58751935	     -3.13760969	     -2.31278298	      2.15524638	      0.99980512	      1.04630513	     31.32069664	      2.95762202	    -10.07807482	     43.82046460	      0.76481139	     27.22632372	     -3.91749279	      0.00000000	     45.73905452	    -11.31853252	     -0.85173814	    117.18042811	      2.04518429	     -5.25940549	    -15.44443813	      0.00000000
